<svg xmlns="http://www.w3.org/2000/svg" width="745.062" height="634.841" viewBox="0 0 745.062 634.841">
  <g id="Group_6958" data-name="Group 6958" transform="translate(-929.65 -143)">
    <g id="Group_6594" data-name="Group 6594" transform="translate(931.15 282.087)">
      <g id="Group_6603" data-name="Group 6603" transform="translate(0 0)">
        <g id="Group_6601" data-name="Group 6601" transform="translate(266.85 0)">
          <g id="Group_6600" data-name="Group 6600" transform="translate(0)">
            <g id="Group_6599" data-name="Group 6599" transform="translate(0)">
              <path id="Path_7477" data-name="Path 7477" d="M-2733.969,4914.772c-3.8-4.752-7.084-14.838-6.637-20.883.258-3.48,1.622-7.026.571-10.364-.752-2.391-2.621-4.235-4.057-6.291a25.894,25.894,0,0,1-3.144-6.421,16.888,16.888,0,0,1-1.091-7.874c.3-2.011,1.159-3.891,1.6-5.875,1.589-7.229-2.1-14.546-2.69-21.943-.957-12.04,10.206-19.584,10.292-19.794,5.428-3.829,5.513-11.706,8.256-17.757a19.282,19.282,0,0,1,16.652-11.246c2.616-.06,5.219.454,7.838.507,9.611.194,18.252-5.711,27.751-7.118a26.026,26.026,0,0,1,19.116,4.38c5.409,3.993,8.894,10.723,8.325,17.394-.1,1.208-.312,2.521.31,3.571.892,1.506,2.945,1.679,4.674,1.92a19.406,19.406,0,0,1,14.119,9.82,19.214,19.214,0,0,1,.456,17.134c-.728,1.523-1.678,3-1.84,4.69-.44,4.567,4.711,7.5,6.943,11.532,2.121,3.825,1.45,8.655-.443,12.567s-4.867,7.172-7.49,10.634a17.083,17.083,0,0,0-3.249,5.979c-1.551,6.213,3.138,12.262,3.844,18.644a10.6,10.6,0,0,1-.73,5.548c-1,2.186-2.9,3.795-4.339,5.713s-1.305,8.215-.162,10.343" transform="translate(2786.135 -4779.41)" fill="#a8805a"/>
              <path id="Path_7478" data-name="Path 7478" d="M-2755.027,5018.736c-6.975-5.325-21.581-32.549-16.756-73.328,5.739-35.981,17.528-60.7,44.391-70.642s53.485-20.03,92.195,1.522c50.283,40.556,46.363,111.408,14.822,143.414,6.135,33.779,8.7,38.573,8.7,38.573l-160.109.562S-2763.778,5035.767-2755.027,5018.736Z" transform="translate(2772.741 -4739.035)" fill="#d1e4f3"/>
              <path id="Path_7479" data-name="Path 7479" d="M-2734.065,4912.748c-3.8-4.754-6.988-12.814-6.541-18.858.258-3.48,1.622-7.026.571-10.364-.752-2.391-2.621-4.235-4.057-6.291a25.894,25.894,0,0,1-3.144-6.421,16.888,16.888,0,0,1-1.091-7.874c.3-2.011,1.159-3.891,1.6-5.875,1.589-7.229-2.1-14.546-2.69-21.943-.957-12.04,10.206-19.584,10.292-19.794,5.428-3.829,5.513-11.706,8.256-17.757a19.282,19.282,0,0,1,16.652-11.246c2.616-.06,5.219.454,7.838.507,9.611.194,18.252-5.711,27.751-7.118a26.026,26.026,0,0,1,19.116,4.38c5.409,3.993,8.894,10.723,8.325,17.394-.1,1.208-.312,2.521.31,3.571.892,1.506,2.945,1.679,4.674,1.92a19.406,19.406,0,0,1,14.119,9.82,19.214,19.214,0,0,1,.456,17.134c-.728,1.523-1.678,3-1.84,4.69-.44,4.567,4.711,7.5,6.943,11.532,2.121,3.825,1.45,8.655-.443,12.567s-4.867,7.172-7.49,10.634a17.083,17.083,0,0,0-3.249,5.979c-1.551,6.213,3.138,12.262,3.844,18.644a10.6,10.6,0,0,1-.73,5.548c-1,2.186-2.9,3.795-4.339,5.713s-1.305,8.215-.162,10.343" transform="translate(2786.135 -4779.41)" fill="none" stroke="#183b56" stroke-linecap="round" stroke-linejoin="round" stroke-width="3"/>
              <g id="Group_6598" data-name="Group 6598" transform="translate(47.268 27.057)">
                <g id="Group_6597" data-name="Group 6597">
                  <g id="Group_6596" data-name="Group 6596">
                    <path id="Path_7480" data-name="Path 7480" d="M-2696.941,4842.915l2.2,32.758c.282,3.492-1.207,5.724-4.3,7.338-7.693,4.014-25.775,2.153-24.588-5.254,2.945-18.363,4.073-31.947,4.073-31.947Z" transform="translate(2751.174 -4776.167)" fill="#fff" stroke="#183b56" stroke-width="3"/>
                    <g id="Group_6595" data-name="Group 6595">
                      <path id="Path_7481" data-name="Path 7481" d="M-2667.4,4827.857a5.886,5.886,0,0,0-2.555.586c-2.885-17.357-14.843-29.654-27.272-30.573-15.226-1.508-27.593,9.065-35.085,22.087a6.025,6.025,0,0,0-3.4-1.074c-3.668,0-6.615,3.4-6.582,7.6a7.74,7.74,0,0,0,4.178,7.03c-2.193,7.447-2.217,15.621-1.257,20.053,3.665,16.915,23.823,27.6,29.41,27.211,29-2.012,34.287-10.929,40.288-37.989a2.1,2.1,0,0,0,.024-.24,5.916,5.916,0,0,0,2.368.506c3.668,0,6.615-3.4,6.583-7.6S-2663.733,4827.857-2667.4,4827.857Z" transform="translate(2742.295 -4797.727)" fill="#fff" stroke="#183b56" stroke-width="3"/>
                      <ellipse id="Ellipse_122" data-name="Ellipse 122" cx="3.972" cy="4.003" rx="3.972" ry="4.003" transform="matrix(0.706, -0.708, 0.708, 0.706, 20.761, 31.581)" fill="#183b56"/>
                      <ellipse id="Ellipse_123" data-name="Ellipse 123" cx="3.972" cy="4.003" rx="3.972" ry="4.003" transform="matrix(0.706, -0.708, 0.708, 0.706, 39.295, 34.582)" fill="#183b56"/>
                      <path id="Path_7482" data-name="Path 7482" d="M-2727.2,4832.405c1.625,6.341,13.685,10.257,22.387,2.583" transform="translate(2749.499 -4781.18)" fill="none" stroke="#183b56" stroke-linecap="round" stroke-linejoin="round" stroke-width="3"/>
                    </g>
                  </g>
                </g>
              </g>
              <path id="Path_7483" data-name="Path 7483" d="M-2705.811,4794.462c3.04,2.919,6.923,1.889,10.723,3.123a39.572,39.572,0,0,1,9.882,4.9,29.631,29.631,0,0,1,7.378,6.495c2.307,3.13,2.84,6.438,6,9.025,5.173,4.233-2.123,11.512-7.255,7.311-2.817-2.306-11.4-2.646-13.037-5.8-2.134-4.112-8.608-11.958-12-12.61-3.483-.665-24.807,9.074-27.315,6.665C-2736.267,4808.929-2710.634,4789.83-2705.811,4794.462Z" transform="translate(2794.454 -4772.572)" fill="#a8805a"/>
              <path id="Path_7484" data-name="Path 7484" d="M-2719.156,4793.455a8.788,8.788,0,0,0,1.236,11.22c4.277,3.879,11.681,2.905,15.43,7.3,1.666,1.952,2.26,4.628,3.864,6.633,3.294,4.107,13.2,5.14,17.545,8.1" transform="translate(2799.898 -4772.708)" fill="none" stroke="#183b56" stroke-linecap="round" stroke-linejoin="round" stroke-width="3"/>
              <path id="Path_7485" data-name="Path 7485" d="M-2730.163,4796.132c2.5,1.243,3.282,4.679,3.639,7.168.644,4.5,2.1,6.174,4.5,8.1,4.991,4,9.147.883,13.823,7.378" transform="translate(2795.351 -4771.43)" fill="none" stroke="#183b56" stroke-linecap="round" stroke-linejoin="round" stroke-width="3"/>
              <path id="Path_7486" data-name="Path 7486" d="M-2733.868,4802.545c.065,8.462,9.846,9.006,11.863,13.642" transform="translate(2793.584 -4768.372)" fill="none" stroke="#183b56" stroke-linecap="round" stroke-linejoin="round" stroke-width="3"/>
              <path id="Path_7487" data-name="Path 7487" d="M-2693.57,4874.693c-10.1,5.273-33.851,2.829-32.29-6.9" transform="translate(2795.274 -4733.047)" fill="none" stroke="#183b56" stroke-linecap="round" stroke-linejoin="round" stroke-width="3"/>
              <path id="Path_7488" data-name="Path 7488" d="M-2773.452,5025.114H-2614.8s-19.149,92.527-41.541,146.944c-13.665,33.209-21.628,31.541-26.493-6.729-4.057-31.918-14.816-140.016-14.816-140.016s-11.671,109.634-14.583,136.309c-4.817,44.128-17.627,42.156-24.85,15.952-26.088-92.089-58.729-146.092-15.837-242.857" transform="translate(2774.573 -4705.311)" fill="none" stroke="#183b56" stroke-linecap="round" stroke-linejoin="round" stroke-width="3"/>
            </g>
            <path id="Path_7489" data-name="Path 7489" d="M-2743.059,4889.677c-10.263,11.014-23.077,23.923-16.183,39.065s5.416,15.145,5.416,15.145" transform="translate(2780.546 -4726.799)" fill="none" stroke="#183b56" stroke-linecap="round" stroke-linejoin="round" stroke-width="3"/>
            <path id="Path_7490" data-name="Path 7490" d="M-2680.728,4906.426c4.115,15.076,20.363,33.583-4.456,58.94s9.91,47.618,27.616,26.322l5.533-7.5" transform="translate(2812.686 -4718.808)" fill="none" stroke="#183b56" stroke-linecap="round" stroke-linejoin="round" stroke-width="3"/>
            <path id="Path_7491" data-name="Path 7491" d="M-2668.659,4922.075c-6.185,5.414-16.1,18.138-36.219,7.581" transform="translate(2807.415 -4711.341)" fill="none" stroke="#183b56" stroke-linecap="round" stroke-linejoin="round" stroke-width="3"/>
          </g>
          <line id="Line_286" data-name="Line 286" x2="27.41" transform="translate(35.523 492.549)" fill="none" stroke="#183b56" stroke-linecap="round" stroke-linejoin="round" stroke-width="2"/>
          <line id="Line_287" data-name="Line 287" x2="27.41" transform="translate(93.201 492.549)" fill="none" stroke="#183b56" stroke-linecap="round" stroke-linejoin="round" stroke-width="2"/>
        </g>
        <g id="Group_6593" data-name="Group 6593" transform="translate(0 27.888)">
          <g id="Group_6591" data-name="Group 6591" transform="translate(508.014)">
            <path id="Path_7467" data-name="Path 7467" d="M-2159.732,2596.235c-31.4-10.6-44.395-51.412-35.154-74.656,9.351-23.52,39.21-23.38,44.865-49.945,3.192-14.985-4.894-21.681,1.685-32.911,8.21-14.015,23.719-8.576,34.979-23.547,9.983-13.27,2-23.145,12.2-34.057,9.043-9.68,27.666-15.129,40.62-6.375,7.438,5.026,12.947,14.692,11.98,24.116-1.358,13.25-14.231,13.483-20.136,28.018-7.637,18.8,9.079,30.262,1.98,49.744-5.283,14.5-15.789,11.577-24.087,26.079-13.78,24.083,8.237,44.281-2.117,67.178C-2102.129,2590.257-2133.5,2605.086-2159.732,2596.235Z" transform="translate(2282.487 -2370.344)" fill="#27e896" stroke="#183b56" stroke-linecap="round" stroke-width="3"/>
            <path id="Path_7468" data-name="Path 7468" d="M-2181.327,2662.289c-17.916,6.887-34.135-5.562-36.513-7.451-9.956-7.912-16.9-21.181-15.764-33.532.788-8.555,4.967-11.36,3.1-17.883-2.321-8.1-10.541-7.011-16.393-16.394-5.442-8.724-.1-12.045-5.224-21.571-5.811-10.793-14.675-10.244-17.84-20.812-.717-2.395-3.288-17.372,3.689-25.14,7.4-8.242,16.777,4.272,25.453,3.859,9.177-.437,8.583-11.543,14.271-12.109,10.193-1.013,23.778,17.617,27.341,36.281,2.61,13.671-1.072,18.808,3.726,28.316,4.342,8.607,10.691,6.924,20.119,15.647,9.9,9.159,19.681,26.539,15.612,44.213C-2160.313,2638.138-2164.71,2655.9-2181.327,2662.289Z" transform="translate(2271.021 -2348.282)" fill="#27e896" stroke="#183b56" stroke-linecap="round" stroke-width="3"/>
            <path id="Path_7469" data-name="Path 7469" d="M-2165.8,2806.948a663.436,663.436,0,0,1,9.094-223.077,663.073,663.073,0,0,1,73.094-191.122" transform="translate(2286.646 -2366.836)" fill="none" stroke="#183b56" stroke-linecap="round" stroke-linejoin="round" stroke-width="3"/>
            <path id="Path_7470" data-name="Path 7470" d="M-2115,2597.919a548.63,548.63,0,0,0-31.619,77.52,548.651,548.651,0,0,0-21.419,94.858" transform="translate(2287.148 -2334.704)" fill="none" stroke="#183b56" stroke-linecap="round" stroke-linejoin="round" stroke-width="3"/>
            <path id="Path_7471" data-name="Path 7471" d="M-2235.947,2546.77a616.556,616.556,0,0,1,45.9,105.059,616.747,616.747,0,0,1,27.539,127.5" transform="translate(2276.514 -2342.713)" fill="none" stroke="#183b56" stroke-linecap="round" stroke-linejoin="round" stroke-width="3"/>
            <path id="Path_7472" data-name="Path 7472" d="M-2154.348,2780.667h-11.446a39.957,39.957,0,0,1-37.151-25.245l-10.784-27.228h106.587l-11.053,27.907A38.886,38.886,0,0,1-2154.348,2780.667Z" transform="translate(2279.993 -2314.301)" fill="#183b56"/>
            <rect id="Rectangle_618" data-name="Rectangle 618" width="111.709" height="13.197" transform="translate(64.304 404.121)" fill="#fff" stroke="#183b56" stroke-width="3"/>
            <path id="Path_7473" data-name="Path 7473" d="M-2132.105,2670.4c-14.269,1.432-23.716-9.248-24.148-9.758-6.242-7.321-8.711-17.844-5.616-26.27,3.959-10.8,13.714-8.966,18.173-19.625,4.933-11.793-4.256-20.59,1.146-29.74,2.689-4.566,7.666-6.943,12.477-8.223a15.671,15.671,0,0,1,10.077.724l31.806,13.3c1.009,4.774,1.405,10.98-1.789,16.186-4.075,6.628-11.572,7.713-16.962,10.126-2.637,1.173-4.767,2.672-5.758,5.279-2.613,6.895,6.767,11.062,6.554,21.666C-2106.38,2655.309-2117.3,2668.921-2132.105,2670.4Z" transform="translate(2287.906 -2338.094)" fill="#27e896" stroke="#183b56" stroke-linecap="round" stroke-width="3"/>
            <path id="Path_7474" data-name="Path 7474" d="M-2147.364,2666.42a35.741,35.741,0,0,1,4.2-16.594c5.116-9.587,10.643-8.691,14.689-16.718,5.488-10.889-1.758-18.346,3.526-29.535,3.112-6.586,8.693-10.5,12.805-12.753" transform="translate(2290.386 -2335.816)" fill="none" stroke="#183b56" stroke-linecap="round" stroke-linejoin="round" stroke-width="3"/>
            <path id="Path_7475" data-name="Path 7475" d="M-2129.986,2576.393h.729c.042.013,20.115,6.557,22.06,18.847s-3.546,23.054,6.362,28.192,25.927-3.927,22.953-17.915c-4.208-19.8-23.284-19.952-23.284-19.952S-2113.829,2575.186-2129.986,2576.393Z" transform="translate(2293.108 -2338.09)" fill="#27e896" stroke="#183b56" stroke-linecap="round" stroke-width="3"/>
            <path id="Path_7476" data-name="Path 7476" d="M-2105.068,2584.311s10.908,7.271,6.344,26.574" transform="translate(2297.01 -2336.835)" fill="none" stroke="#183b56" stroke-width="3"/>
          </g>
          <line id="Line_283" data-name="Line 283" x2="698.662" transform="translate(0 466.366)" fill="none" stroke="#183b56" stroke-linecap="round" stroke-linejoin="round" stroke-width="3"/>
          <g id="Group_6592" data-name="Group 6592" transform="translate(98.352 146.565)">
            <rect id="Rectangle_619" data-name="Rectangle 619" width="417.325" height="233.181" transform="translate(12.498 86.166)" fill="#fff" stroke="#183b56" stroke-linecap="round" stroke-linejoin="round" stroke-width="3"/>
            <rect id="Rectangle_620" data-name="Rectangle 620" width="417.325" height="76.255" transform="translate(12.498 86.166)" fill="#fff" stroke="#183b56" stroke-width="3"/>
            <rect id="Rectangle_621" data-name="Rectangle 621" width="417.325" height="18.955" transform="translate(12.498 143.465)" fill="#183b56"/>
            <g id="Group_6602" data-name="Group 6602" transform="translate(0 0)">
              <path id="Path_7492" data-name="Path 7492" d="M10071.748-2651.21c0-3.676-4.412-8.048-11.83-8.048h-49.82l-19.7-64.635a9.131,9.131,0,0,0-8.736-6.469h-99.828l25.715,84.282h164.2Z" transform="translate(-9873.632 2730.361)" fill="#fff" stroke="#183b56" stroke-width="3"/>
              <path id="Path_7493" data-name="Path 7493" d="M9874.986-2730.361h106.592l25.713,84.282H9900.7Z" transform="translate(-9874.986 2730.361)" fill="#fff" stroke="#183b56" stroke-width="3"/>
              <rect id="Rectangle_622" data-name="Rectangle 622" width="66.977" height="5.018" transform="translate(131.143 79.265)" fill="#183b56"/>
            </g>
            <g id="Group_6648" data-name="Group 6648" transform="translate(369.728 -15.387)">
              <g id="Group_6644" data-name="Group 6644" transform="translate(0 4.989)">
                <g id="Group_6642" data-name="Group 6642" transform="translate(30.119 6.215)">
                  <rect id="Rectangle_660" data-name="Rectangle 660" width="90.348" height="12.268" transform="translate(0 90.348) rotate(-90)" fill="#fff" stroke="#183b56" stroke-width="3"/>
                  <line id="Line_315" data-name="Line 315" x1="7.55" transform="translate(2.335 7.923)" fill="none" stroke="#183b56" stroke-width="3"/>
                  <line id="Line_316" data-name="Line 316" x1="7.55" transform="translate(2.335 11.906)" fill="none" stroke="#183b56" stroke-width="3"/>
                </g>
                <g id="Group_6643" data-name="Group 6643" transform="translate(0 0)">
                  <rect id="Rectangle_661" data-name="Rectangle 661" width="96.563" height="15.088" transform="translate(0 96.563) rotate(-90)" fill="#fff" stroke="#183b56" stroke-width="3"/>
                  <line id="Line_317" data-name="Line 317" y2="28.755" transform="translate(8.97 7.824)" fill="none" stroke="#183b56" stroke-width="3"/>
                  <line id="Line_318" data-name="Line 318" y2="28.755" transform="translate(5.518 7.824)" fill="none" stroke="#183b56" stroke-width="3"/>
                </g>
              </g>
              <g id="Group_6647" data-name="Group 6647" transform="translate(15.028)">
                <g id="Group_6645" data-name="Group 6645">
                  <rect id="Rectangle_662" data-name="Rectangle 662" width="15.088" height="101.553" fill="#fff" stroke="#183b56" stroke-width="3"/>
                </g>
                <g id="Group_6646" data-name="Group 6646">
                  <rect id="Rectangle_663" data-name="Rectangle 663" width="15.088" height="101.553" fill="#183b56" stroke="#183b56" stroke-width="3"/>
                </g>
              </g>
            </g>
          </g>
        </g>
      </g>
    </g>
    <g id="Group_6954" data-name="Group 6954" transform="translate(1114.002 1913.148)" opacity="0.4">
      <circle id="Ellipse_128" data-name="Ellipse 128" cx="30.003" cy="30.003" r="30.003" transform="translate(277.915 -1683.01) rotate(-0.072)" fill="#fff" stroke="#183b56" stroke-linecap="round" stroke-linejoin="round" stroke-width="3"/>
      <path id="Path_7633" data-name="Path 7633" d="M76.741,51.4l-8.21-8.21V22.923" transform="translate(239.425 -1696.23)" fill="#fff" stroke="#183b56" stroke-linecap="round" stroke-linejoin="round" stroke-width="3"/>
    </g>
  </g>
</svg>